PathFileType	4	(X/Y/Z)	OpenSim_Sub01_CSStiffKnee_Accel.trc
DataRate	CameraRate	NumFrames	NumMarkers	Units	OrigDataRate	OrigDataStartFrame	OrigNumFrames
100	100	37	8	m	100	2018	5381
Frame#	Time	torso_imu_offset_imu	pelvis_imu_offset_imu	tibia_r_imu_offset_imu	femur_r_imu_offset_imu	tibia_l_imu_offset_imu	femur_l_imu_offset_imu	toes_r_imu_offset_imu	toes_l_imu_offset_imu
				X1	Y1	Z1	X2	Y2	Z2	X3	Y3	Z3	X4	Y4	Z4	X5	Y5	Z5	X6	Y6	Z6	X7	Y7	Z7	X8		Y8	Z8	

2018	20.17000000	12.49374854	-1.09114940	6.87912950	13.38083524	2.49301459	4.91858156	17.18577084	-4.25887513	4.61094030	17.04139034	-5.68743477	0.03566609	12.78387508	-3.44184262	0.82095536	11.98753695	2.06082586	-2.45691545	11.27000655	-2.74988790	15.20432527	5.52630566	0.41906964	11.25432069
2019	20.18000000	12.91142391	-1.38491719	7.00381376	13.97480607	2.96858530	5.07555162	14.36913752	-0.56012874	3.21140645	15.43855635	-9.68676990	-1.56725052	13.20413810	-3.10716212	0.84911813	12.81178370	1.59650600	-2.36198792	14.95587243	-2.16947278	14.95154428	5.52123591	0.87747336	11.21225092
2020	20.19000000	13.11726943	-1.47515989	6.88030417	14.08233017	2.73287230	4.74662131	11.73874263	4.07361552	1.78347120	13.44290835	-10.95229232	-3.07681394	13.09963043	-2.79310786	0.74252430	13.08795000	0.64060381	-2.28090621	14.69854776	-1.16586579	13.32487381	5.60932674	1.22117953	11.07530838
2021	20.20000000	13.06074120	-1.45918940	6.59170729	13.67874169	1.85515519	4.17637869	9.83841995	8.13856900	0.65983112	11.56490759	-8.75203986	-3.62027854	12.48530680	-2.57452502	0.52510576	12.76697394	-0.56591081	-2.29173318	11.12997593	-0.27784296	11.15773372	5.94304094	1.45260657	10.84933932
2022	20.21000000	12.63598145	-1.52886599	6.33660962	12.83980967	0.63355167	3.69080150	8.33824086	9.98513861	-0.31595118	9.79001129	-3.46354351	-2.19975204	11.49979418	-2.41019237	0.27962116	12.00147276	-1.64654875	-2.42645716	7.51438425	-0.40200796	9.43485851	6.75057298	1.73039742	10.53066176
2023	20.22000000	11.82558820	-1.78726978	6.21702557	11.69196277	-0.62686263	3.50270581	7.18426409	8.91708843	-1.19261553	8.21938757	3.60613397	1.09365054	10.31078949	-2.31785857	0.10394202	10.99663885	-2.36100369	-2.66081834	5.93161685	-1.80113362	8.70696237	8.18494669	2.09629307	10.18323104
2024	20.23000000	10.81112327	-2.13666186	6.11616096	10.47176835	-1.61208663	3.57006654	6.96354825	6.36958278	-1.76449358	7.22752710	9.10789166	3.73533785	9.14728593	-2.45019725	0.12796430	10.06915774	-2.77673797	-2.84638096	5.74292941	-3.31342695	8.55197999	10.22927620	2.32668962	10.02219433
2025	20.24000000	9.79506906	-2.45847295	5.90214881	9.41863959	-2.03501385	3.81484192	8.22503016	3.97172050	-1.81314439	7.17847106	9.82311408	3.20835982	8.21312045	-2.97582477	0.45647876	9.51898051	-2.99558194	-2.82943671	5.98867619	-3.70774999	8.45755517	12.69337051	2.22867561	10.32926987
2026	20.25000000	8.91796136	-2.69960345	5.59315992	8.64752132	-1.89865552	4.14314348	10.22870940	2.37745322	-1.34363841	7.94659295	6.73269403	0.47385997	7.36680413	-4.03947378	0.89036660	9.31755921	-3.04426027	-2.57530151	6.19381619	-3.02698283	8.33803271	13.83524237	2.29684405	11.86223766
2027	20.26000000	8.28363146	-2.84559937	5.29572099	8.19972294	-1.37715455	4.45190242	11.47763406	1.66481876	-0.49336070	9.11735237	3.28902170	-1.46168253	6.26439499	-5.76944620	1.05228857	9.24333899	-2.90564117	-2.11981026	6.16982480	-2.06455460	8.35896640	11.00777882	3.42791625	15.65400993
2028	20.27000000	7.96167683	-2.88716859	5.08393155	8.07198425	-0.64216940	4.67362214	11.19690779	1.77100996	0.50216095	10.26479008	1.70722341	-0.95449786	4.82868724	-7.79764646	0.78940214	9.23971828	-2.65779871	-1.56354380	5.86450068	-1.40032887	8.57856194	3.74640547	5.78982476	21.52878343
2029	20.28000000	7.94636861	-2.82542203	4.95698946	8.16372179	0.14512017	4.82044186	10.24456347	2.33556538	1.19223191	10.94580040	1.37048319	0.53962894	3.58347356	-8.64885706	0.45491692	9.62371663	-2.59250165	-1.14951483	5.52155336	-1.11600216	8.80825811	-3.51752072	7.91278195	26.60585208
2030	20.29000000	8.21139610	-2.66422327	4.90301293	8.36176097	0.83184665	4.91640549	9.62256335	2.96969266	1.15214780	10.77901916	1.32744706	1.28357895	3.10093018	-6.91433697	0.42125786	10.67734435	-2.97390147	-1.10655024	5.39825528	-1.21226983	8.84577770	-6.16838716	8.26646064	27.94233350
2031	20.30000000	8.62318955	-2.42132173	4.90036517	8.55888741	1.33631761	4.99721642	9.53777964	3.40790093	0.52607420	10.04442939	1.12892587	0.96547295	3.61322016	-3.41810963	0.55234203	11.79929645	-3.48253947	-1.31807204	5.47855303	-1.54946823	8.69194189	-4.52729263	6.98320069	25.73181211
2032	20.31000000	8.98524606	-2.12271166	4.92167387	8.65166897	1.61902567	5.10531677	9.72830014	3.45786407	-0.20696367	9.41079926	0.62288008	0.11391291	5.15037142	-0.29731820	0.41351507	11.87035834	-3.45644176	-1.46427725	5.58545357	-1.90548750	8.46727846	-1.82241618	5.17467869	22.01576889
2033	20.32000000	9.17315449	-1.80570835	4.94361149	8.59312736	1.68245869	5.25360128	9.98466689	3.01797350	-0.72114173	9.26062572	-0.14825337	-0.80238749	7.41215496	1.16125433	-0.13251303	10.44278281	-2.60728334	-1.33834869	5.60516436	-2.13305828	8.27041966	-0.19288930	3.63716793	18.34009024
2034	20.33000000	9.22517472	-1.53264970	4.95204089	8.46213886	1.62159066	5.38884227	10.22798066	2.18692591	-1.04212563	9.32644564	-0.71667783	-1.47257985	9.36727942	1.60607543	-0.55092220	8.58198222	-1.49032781	-0.99143156	5.56955154	-2.25427798	8.14769078	0.73595029	2.43494949	15.09156700
2035	20.34000000	9.19659069	-1.36467033	4.93470421	8.34673268	1.53902335	5.45116289	10.39538524	1.10815468	-1.23679599	9.28268357	-0.62145786	-1.64369117	10.01052570	1.88600759	-0.29228485	7.45968486	-0.72424056	-0.51574569	5.52744643	-2.31171133	8.13099815	1.62489898	1.53933419	12.48870874
2036	20.35000000	9.09120891	-1.31552964	4.88590740	8.25362896	1.48691512	5.40440601	10.40727554	0.10714101	-1.30654141	9.11173329	-0.06665555	-1.43971754	9.62702165	2.21545456	0.40479036	7.23152223	-0.40385403	-0.06721421	5.49935900	-2.32263922	8.17645745	2.57729185	0.98432917	10.63183970
2037	20.36000000	8.88264493	-1.37097753	4.80384850	8.14169123	1.48753142	5.22658325	10.17465676	-0.38424538	-1.21430669	8.97730279	0.35275338	-1.20628901	9.26104895	2.43478312	0.83859374	7.45410997	-0.31516094	0.16115761	5.48907755	-2.28946439	8.19567438	3.36794926	0.84056502	9.55108133
2038	20.37000000	8.58185186	-1.50353348	4.69098362	7.99276422	1.53433488	4.93306112	9.71255283	-0.14684809	-0.96344495	8.96677019	0.33335942	-1.13130062	9.52543806	2.43456791	0.68259517	7.76677417	-0.28121900	0.08174693	5.49730035	-2.22244110	8.14259716	3.84323962	1.10197462	9.17393649
2039	20.38000000	8.28396365	-1.65700415	4.55915754	7.84135002	1.55738351	4.62214638	9.26835216	0.56080072	-0.64857975	8.99197237	0.23358897	-1.04430658	10.04844287	2.22819748	0.46074604	8.01066503	-0.21669435	-0.15686325	5.51831312	-2.14977158	8.06693506	4.01864831	1.59030151	9.20096297
2040	20.39000000	8.08758355	-1.77600107	4.42239132	7.72738085	1.48889585	4.39308446	9.09532021	1.41493299	-0.37167363	8.95440057	0.45279444	-0.75264429	10.36404477	1.85249418	0.74796885	8.07413477	-0.06344392	-0.38492982	5.54448793	-2.09942135	8.02598457	3.93853516	2.11219695	9.33238599
2041	20.40000000	8.00954223	-1.85355259	4.30405832	7.67329251	1.37196228	4.23895601	9.18281619	2.08557128	-0.18296201	8.89394745	0.88834541	-0.33484197	10.40830017	1.41464858	1.45739450	8.05091260	0.08393160	-0.54420565	5.55739816	-2.07184162	8.02160545	3.70911762	2.55902850	9.58200600
2042	20.41000000	8.01844003	-1.91119482	4.23298657	7.69110079	1.31492358	4.09033349	9.36471138	2.24027727	-0.10197901	8.93182580	1.14235796	-0.02885952	10.35415648	1.06274372	2.11254893	8.15530169	0.04133506	-0.64219959	5.53235734	-2.05124943	8.02303969	3.47291579	2.87220342	10.14790503
2043	20.42000000	8.08460429	-1.95905524	4.22477930	7.77188367	1.39345980	3.90313234	9.51582462	1.80145954	-0.10862398	9.12050218	1.00167447	0.04323526	10.31153729	0.81374750	2.40501628	8.47863708	-0.24629808	-0.68289137	5.46809670	-2.02118439	8.01754458	3.33263491	3.00683906	11.07981974
2044	20.43000000	8.18360676	-1.98098339	4.26537439	7.86030184	1.60849451	3.69161762	9.60682379	1.26022941	-0.09524580	9.35670676	0.67382599	0.02255871	10.24291162	0.39089549	2.41259940	8.83440170	-0.54354501	-0.66048998	5.41577900	-1.96414281	8.03351495	3.30109567	2.94720068	12.09117411
2045	20.44000000	8.29357412	-1.96031072	4.33756560	7.90109695	1.94274612	3.47820494	9.62478253	1.13484242	0.03955394	9.52303462	0.40846973	0.07115439	10.10262072	-0.47680618	2.26352448	9.02334608	-0.59576843	-0.57075927	5.42915802	-1.86699311	8.09851018	3.38224872	2.69387268	12.87622810
2046	20.45000000	8.41168413	-1.91172590	4.43312652	7.90468471	2.29541402	3.28794729	9.59225464	1.42938656	0.21032835	9.57369665	0.30251687	0.19948118	9.96707093	-1.59047702	2.06707822	9.10289476	-0.35573593	-0.43916302	5.51549690	-1.76319713	8.17400168	3.61402912	2.37519676	13.40117886
2047	20.46000000	8.54629989	-1.86836566	4.54913091	7.92016366	2.51672891	3.14741024	9.55263260	1.84490942	0.22195776	9.50525281	0.36263494	0.32865968	9.98421701	-2.47499083	1.92102210	9.28124141	0.10129884	-0.30860329	5.65456864	-1.71354752	8.18269660	4.05415593	2.19410320	13.79227851
2048	20.47000000	8.69453367	-1.85278564	4.68326611	7.98413757	2.52053735	3.07399618	9.52993075	2.14019896	-0.00423853	9.33593174	0.56641136	0.39743501	10.20471177	-2.85406933	1.84836100	9.62972944	0.67130377	-0.20458900	5.81240673	-1.74595045	8.09430368	4.70442153	2.18884216	14.09868144
2049	20.48000000	8.82807158	-1.86340013	4.83443572	8.10421538	2.36404211	3.06461827	9.50432468	2.21161673	-0.28397186	9.13108936	0.82915044	0.38645369	10.46003786	-2.90308394	1.70563021	9.91000459	1.18956672	-0.11331738	5.92518092	-1.81414533	7.98452278	5.44126038	2.02806727	14.19290057
2050	20.49000000	8.91710319	-1.89511751	5.00059027	8.28163738	2.12305340	3.11124136	9.45606094	1.99286552	-0.41627837	8.96179056	1.06083977	0.28679241	10.57260697	-2.84881815	1.35107804	9.87486305	1.50160047	-0.01924857	5.93106237	-1.86593957	7.93658798	6.12418587	1.38249644	13.94042213
2051	20.50000000	8.95188500	-1.94037448	5.16814247	8.49239794	1.86522960	3.18336612	9.42735495	1.61097451	-0.39537534	8.89220778	1.20357924	0.13867466	10.57733429	-2.81792608	0.89317120	9.61834341	1.64323712	0.05617804	5.83059947	-1.89150090	7.96346017	6.61313087	0.46043046	13.38093309
2052	20.51000000	8.93454363	-1.99015630	5.31670168	8.69766890	1.65334885	3.23733148	9.49670619	1.30662391	-0.33042494	8.98217554	1.21859839	0.01120408	10.63411684	-2.87771229	0.58738297	9.43520058	1.76216108	0.06983145	5.66120802	-1.90593505	8.03663908	6.76917955	-0.21392773	12.65690876
2053	20.52000000	8.87408843	-2.03686759	5.42649828	8.87352954	1.53504379	3.24858511	9.68494625	1.23691331	-0.28935947	9.23387341	1.10662145	-0.05028703	10.82310316	-3.03566546	0.56201148	9.49593027	1.91721712	0.00462391	5.47523058	-1.91357105	8.12629848	6.64501553	-0.37576538	11.91621641
2054	20.53000000	8.79454359	-2.07612177	5.47934452	9.02974913	1.52429428	3.23559102	9.88318786	1.36917403	-0.24480139	9.52096242	0.95594413	-0.05433930	11.04289728	-3.16752045	0.65735361	9.68798412	1.96579933	-0.09779733	5.35725209	-1.89397310	8.20084921	6.72079907	-0.34814912	11.31579002
